# xmcd CD database file
#
# Track frame offsets:
#	150
#	12748
#	26448
#	37477
#	49746
#	63219
#	79583
#	92918
#	107138
#	121032
#	133987
#	150023
#	163885
#	179681
#	194840
#	210425
#	227768
#	241891
#	258183
#	271397
#	282477
#	294924
#	310139
#	321576
#	332096
#
# Disc length: 4611 seconds
#
# Revision: 0
# Processed by: cddbd v1.5.2PL0 Copyright (c) Steve Scherf et al.
# Submitted via: CDex 1.51
#
DISCID=72120119
DTITLE=Ayn Rand - read by C.M. Hèbert unabriged - The Virtue of Selfishness, A New Concept of Egoism - Disc 1/5
DYEAR=1962
DGENRE=New Age
TTITLE0=0 minutes
TTITLE1=3 minutes
TTITLE2=6 minutes
TTITLE3=9 minutes
TTITLE4=12 minutes
TTITLE5=15 minutes
TTITLE6=18 minutes
TTITLE7=21 minutes
TTITLE8=24 minutes
TTITLE9=27 minutes
TTITLE10=30 minutes
TTITLE11=33 minutes
TTITLE12=36 minutes
TTITLE13=39 minutes
TTITLE14=42 minutes
TTITLE15=45 minutes
TTITLE16=48 minutes
TTITLE17=51 minutes
TTITLE18=54 minutes
TTITLE19=57 minutes
TTITLE20=60 minutes
TTITLE21=63 minutes
TTITLE22=66 minutes
TTITLE23=69 minutes
TTITLE24=72 minutes
EXTD=YEAR: 1962
EXTT0=
EXTT1=
EXTT2=
EXTT3=
EXTT4=
EXTT5=
EXTT6=
EXTT7=
EXTT8=
EXTT9=
EXTT10=
EXTT11=
EXTT12=
EXTT13=
EXTT14=
EXTT15=
EXTT16=
EXTT17=
EXTT18=
EXTT19=
EXTT20=
EXTT21=
EXTT22=
EXTT23=
EXTT24=
PLAYORDER=
